<?xml version="1.0" encoding="utf-8"?>
<!-- Generator: Adobe Illustrator 22.1.0, SVG Export Plug-In . SVG Version: 6.00 Build 0)  -->
<svg version="1.1" id="Layer_1" xmlns="http://www.w3.org/2000/svg" xmlns:xlink="http://www.w3.org/1999/xlink" x="0px" y="0px"
	 viewBox="0 0 2493.2 897.1" style="enable-background:new 0 0 2493.2 897.1;" xml:space="preserve">
<style type="text/css">
	.st0{fill:none;stroke:#000000;stroke-miterlimit:10;}
	.st1{fill:url(#SVGID_1_);}
	.st2{fill:url(#SVGID_2_);}
	.st3{fill:#232433;}
	.st4{fill:none;stroke:#232433;stroke-miterlimit:10;}
	.st5{fill:url(#SVGID_3_);}
	.st6{fill:url(#SVGID_4_);}
	.st7{fill:#FFFFFF;}
	.st8{fill:url(#SVGID_5_);}
	.st9{fill:url(#SVGID_6_);}
	.st10{fill:url(#SVGID_7_);}
	.st11{fill:url(#SVGID_8_);}
	.st12{fill:#DC3E4A;}
	.st13{fill:url(#SVGID_9_);}
	.st14{fill:url(#SVGID_10_);}
	.st15{fill:url(#SVGID_11_);}
	.st16{fill:url(#SVGID_12_);}
	.st17{fill:url(#SVGID_13_);}
	.st18{fill:url(#SVGID_14_);}
	.st19{fill:url(#SVGID_15_);}
	.st20{fill:url(#SVGID_16_);}
	.st21{fill:url(#SVGID_17_);}
	.st22{fill:url(#SVGID_18_);}
	.st23{fill:url(#SVGID_19_);}
	.st24{fill:url(#SVGID_20_);}
	.st25{fill:url(#SVGID_21_);}
	.st26{fill:url(#SVGID_22_);}
	.st27{fill:url(#SVGID_23_);}
	.st28{fill:url(#SVGID_24_);}
	.st29{fill:url(#SVGID_25_);}
	.st30{fill:url(#SVGID_26_);}
	.st31{fill:url(#SVGID_27_);}
	.st32{fill:url(#SVGID_28_);}
	.st33{fill:url(#SVGID_29_);}
	.st34{fill:url(#SVGID_30_);}
	.st35{fill:url(#SVGID_31_);}
	.st36{fill:#D92F4F;}
	.st37{fill:#E98032;}
</style>
<g>
	<g>
		<g>
			<g>
				<g>
					<linearGradient id="SVGID_1_" gradientUnits="userSpaceOnUse" x1="361.5842" y1="526.055" x2="819.9595" y2="526.055">
						<stop  offset="0" style="stop-color:#E98132"/>
						<stop  offset="1" style="stop-color:#D92D50"/>
					</linearGradient>
					<polygon class="st1" points="820,822 651.6,822 361.6,230.1 530,230.1 					"/>
					<linearGradient id="SVGID_2_" gradientUnits="userSpaceOnUse" x1="71.3977" y1="550.1172" x2="421.9935" y2="550.1172">
						<stop  offset="0" style="stop-color:#E98132"/>
						<stop  offset="1" style="stop-color:#D92D50"/>
					</linearGradient>
					<polygon class="st2" points="422,450.1 239.8,822 71.4,822 337.8,278.2 					"/>
					<path class="st3" d="M560.2,732.1c-35.4,14.3-74,22.2-114.5,22.2c-40.5,0-79.1-7.9-114.5-22.2l114.5-233.7L560.2,732.1z"/>
				</g>
				<g>
					<path class="st3" d="M819.1,448.5c0,65.5-16.9,127.1-46.5,180.6L734,550.4c11.2-31.9,17.4-66.1,17.4-101.8
						c0-85.6-35.2-162.9-91.8-218.4c-55.1-54-130.6-87.3-213.9-87.3c-83.3,0-158.8,33.3-213.9,87.3
						c-56.7,55.5-91.8,132.9-91.8,218.4c0,35.7,6.1,70,17.4,101.8l-38.6,78.8C89.1,575.6,72.2,514,72.2,448.5
						c0-81.6,26.1-157,70.5-218.4c67.8-93.9,178.2-155,302.9-155c124.7,0,235.1,61.1,302.9,155C793,291.5,819.1,367,819.1,448.5z"/>
				</g>
			</g>
		</g>
	</g>
	<g>
		<path class="st3" d="M2377.5,318.4c-24.4,0-44.3-19.9-44.3-44.3c0-24.4,19.9-44.3,44.3-44.3s44.3,19.9,44.3,44.3
			C2421.9,298.5,2402,318.4,2377.5,318.4z M2377.5,239.5c-19.1,0-34.6,15.5-34.6,34.6c0,19.1,15.5,34.6,34.6,34.6
			s34.6-15.5,34.6-34.6C2412.1,255,2396.6,239.5,2377.5,239.5z"/>
	</g>
	<g>
		<g>
			<path class="st3" d="M2388.4,294.1l-7.6-11h-0.5h-8v11h-9.2v-39.6h17.1c10.6,0,17.2,5.5,17.2,14.4c0,5.9-3,10.3-8.1,12.5
				l8.9,12.7H2388.4z M2379.8,261.9h-7.5v13.8h7.5c5.6,0,8.4-2.6,8.4-6.9C2388.2,264.5,2385.4,261.9,2379.8,261.9z"/>
		</g>
	</g>
	<g>
		<g>
			<path class="st3" d="M1119.6,227.6h58l165.2,413.9h-61.6l-41.5-103h-183l-40.3,103h-62.2L1119.6,227.6z M1223.2,488.2
				l-74.6-193.6L1074,488.2H1223.2z"/>
			<path class="st3" d="M1422.5,625.5c-15.6-16.6-23.4-40.1-23.4-70.5V403.5h-43.2v-46.2h43.2V272h60.4v85.3h69.9v46.2h-69.9v147.4
				c0,18.9,3.6,32.4,11,40.3c7.3,7.9,20.6,11.8,40,11.8c11.4,0,22.9-2.6,34.3-7.7v47.4c-15,5.1-33.6,7.7-55.7,7.7
				C1460.3,650.4,1438.1,642.1,1422.5,625.5z"/>
			<path class="st3" d="M1611.1,203.9h59.8v437.6h-59.8V203.9z"/>
			<path class="st3" d="M1768,291.6c-6.7-6.7-10.1-15-10.1-24.9c0-9.9,3.3-18.2,10.1-24.9c6.7-6.7,15-10.1,24.9-10.1
				c10.3,0,18.8,3.4,25.8,10.1c6.9,6.7,10.4,15,10.4,24.9c0,9.9-3.5,18.2-10.4,24.9c-6.9,6.7-15.5,10.1-25.8,10.1
				C1783,301.6,1774.7,298.3,1768,291.6z M1762.6,357.3h61v284.2h-61V357.3z"/>
			<path class="st3" d="M2013.4,616.1c-34.5-17-61.4-41.2-80.5-72.5c-19.2-31.4-28.7-68-28.7-109.8c0-42.2,9.5-79.6,28.4-112.2
				c18.9-32.6,45-57.8,78.2-75.8c33.2-18,70.3-26.9,111.3-26.9c41.1,0,78.2,9,111.3,26.9c33.2,18,59.2,43.2,78.2,75.8
				c18.9,32.6,28.4,70,28.4,112.2c0,33.6-7.6,64.2-22.8,92.1c-15.2,27.8-35.2,49.1-60.1,63.7h89.4v52.1h-213.8
				C2087.7,641.5,2048,633,2013.4,616.1z M2203.2,568.7c23.7-11.8,42.1-29.3,55.4-52.4c13.2-23.1,19.8-50.6,19.8-82.6
				c0-31.6-6.9-59.5-20.7-83.8c-13.8-24.3-32.6-42.9-56.3-56c-23.7-13-50.1-19.5-79.3-19.5c-29.2,0-55.8,6.5-79.6,19.5
				c-23.9,13-42.7,31.6-56.6,55.7c-13.8,24.1-20.7,52.1-20.7,84.1c0,32.4,6.6,60,19.8,82.9c13.2,22.9,31.7,40.3,55.4,52.1
				c23.7,11.8,50.9,17.8,81.7,17.8C2152.5,586.5,2179.5,580.5,2203.2,568.7z"/>
		</g>
	</g>
	<g>
		<g>
			<path class="st12" d="M1294.3,784.8c-3,2.4-7.5,3.6-12,3.6c-11.7,0-18.4-6.2-18.4-18v-25.7h-8.8v-10h8.8v-12.2h12.5v12.2h14.3v10
				h-14.3v25.4c0,5.2,2.6,8,7.4,8c2.6,0,5.1-0.7,7-2.2L1294.3,784.8z"/>
			<path class="st12" d="M1392,765.1h-41.8c1.5,7.8,8,12.8,17.3,12.8c6,0,10.7-1.9,14.5-5.8l6.7,7.7c-4.8,5.7-12.3,8.7-21.5,8.7
				c-17.9,0-29.5-11.5-29.5-27.4c0-15.9,11.7-27.3,27.6-27.3c15.6,0,27,10.9,27,27.6C1392.2,762.4,1392.1,763.9,1392,765.1z
				 M1350.1,756.8h30.3c-1-7.7-6.9-13-15.1-13C1357.2,743.8,1351.3,749,1350.1,756.8z"/>
			<path class="st12" d="M1439.2,761.1c0-16,12-27.3,28.9-27.3c10.4,0,18.7,4.3,22.8,12.4l-9.6,5.6c-3.2-5.1-8-7.4-13.3-7.4
				c-9.2,0-16.2,6.4-16.2,16.7c0,10.4,7,16.7,16.2,16.7c5.3,0,10.1-2.3,13.3-7.4l9.6,5.6c-4.1,8-12.4,12.5-22.8,12.5
				C1451.1,788.4,1439.2,777,1439.2,761.1z"/>
			<path class="st12" d="M1592.9,757.2v30.6h-12.5v-29c0-9.5-4.7-14.1-12.7-14.1c-8.9,0-14.9,5.4-14.9,16.1v27h-12.5v-74.1h12.5v27
				c4.1-4.4,10.4-6.8,17.8-6.8C1583.4,733.8,1592.9,741.1,1592.9,757.2z"/>
			<path class="st12" d="M1700.7,757.2v30.6h-12.5v-29c0-9.5-4.7-14.1-12.7-14.1c-8.9,0-14.9,5.4-14.9,16.1v27h-12.5v-53.3h11.9v6.9
				c4.1-4.9,10.6-7.5,18.4-7.5C1691.2,733.8,1700.7,741.1,1700.7,757.2z"/>
			<path class="st12" d="M1752,761.1c0-16,12-27.3,28.4-27.3c16.6,0,28.5,11.3,28.5,27.3c0,16-11.9,27.4-28.5,27.4
				C1764,788.4,1752,777,1752,761.1z M1796.2,761.1c0-10.2-6.8-16.7-15.9-16.7c-9,0-15.8,6.5-15.8,16.7c0,10.2,6.8,16.7,15.8,16.7
				C1789.4,777.7,1796.2,771.3,1796.2,761.1z"/>
			<path class="st12" d="M1860.1,713.6h12.5v74.1h-12.5V713.6z"/>
			<path class="st12" d="M1923.9,761.1c0-16,12-27.3,28.4-27.3c16.6,0,28.5,11.3,28.5,27.3c0,16-11.9,27.4-28.5,27.4
				C1935.9,788.4,1923.9,777,1923.9,761.1z M1968.2,761.1c0-10.2-6.8-16.7-15.9-16.7c-9,0-15.8,6.5-15.8,16.7
				c0,10.2,6.8,16.7,15.8,16.7C1961.4,777.7,1968.2,771.3,1968.2,761.1z"/>
			<path class="st12" d="M2085,734.4v45.2c0,19.4-10.1,28.2-28.8,28.2c-10,0-19.9-2.6-26-7.6l5.6-9.4c4.7,3.9,12.3,6.4,19.7,6.4
				c11.8,0,17-5.4,17-16.2v-2.8c-4.4,4.8-10.7,7.1-17.9,7.1c-15.3,0-27-10.4-27-25.9c0-15.5,11.7-25.7,27-25.7
				c7.5,0,14.1,2.4,18.5,7.7v-7.1H2085z M2072.7,759.5c0-9-6.8-15.1-16.2-15.1c-9.5,0-16.3,6.1-16.3,15.1c0,9.1,6.8,15.3,16.3,15.3
				C2065.9,774.7,2072.7,768.6,2072.7,759.5z"/>
			<path class="st12" d="M2139,718.1c0-4.2,3.4-7.5,8-7.5c4.6,0,8,3.1,8,7.2c0,4.4-3.3,7.8-8,7.8
				C2142.4,725.6,2139,722.3,2139,718.1z M2140.7,734.4h12.5v53.3h-12.5V734.4z"/>
			<path class="st12" d="M2258.8,765.1H2217c1.5,7.8,8,12.8,17.3,12.8c6,0,10.7-1.9,14.5-5.8l6.7,7.7c-4.8,5.7-12.3,8.7-21.5,8.7
				c-17.9,0-29.5-11.5-29.5-27.4c0-15.9,11.7-27.3,27.6-27.3c15.6,0,27,10.9,27,27.6C2259,762.4,2258.9,763.9,2258.8,765.1z
				 M2216.9,756.8h30.3c-1-7.7-6.9-13-15.1-13C2224,743.8,2218.1,749,2216.9,756.8z"/>
			<path class="st12" d="M2304.2,782.4l4.8-9.5c4.7,3.1,11.9,5.3,18.6,5.3c7.9,0,11.2-2.2,11.2-5.9c0-10.2-32.9-0.6-32.9-21.9
				c0-10.1,9.1-16.7,23.5-16.7c7.1,0,15.2,1.7,20,4.6l-4.8,9.5c-5.1-3-10.2-4-15.3-4c-7.6,0-11.2,2.5-11.2,6
				c0,10.8,32.9,1.2,32.9,22.1c0,10-9.2,16.5-24.2,16.5C2317.9,788.4,2309,785.8,2304.2,782.4z"/>
		</g>
	</g>
</g>
</svg>
